PathFileType  4	(X/Y/Z) C:\Users\antoi\Documents\MyRepositories\mobilecap\ResultsAnalysis
DataRate	CameraRate	NumFrames	NumMarkers	Units	OrigDataRate	OrigDataStartFrame	OrigNumFrames
100.0	100.0	4	51	mm	100.0	219	250
Frame#	Time	r_knee			r_shank_antsup			r_ankle			r_calc			r_5meta			r_toe			L_knee			L_shank_antsup			L_ankle			L_calc			L_5meta			L_toe			r_sh2			r_sh3			r_sh4			L_sh2			L_sh3			r_thigh1			r_thigh2			r_thigh3			r_thigh4			r_thigh5			L_thigh1			L_thigh2			L_thigh3			L_thigh4			r.ASIS			r.PSIS			L.ASIS			L.PSIS			C7			R_Shoulder			L_Shoulder			R_Sternum			L_Sternum			R_humerus			R_elbow_med			R_elbow_lat			R_forearm			R_wrist_radius			R_wrist_ulna			L_humerus			L_elbow_med			L_elbow_lat			L_forearm			L_wrist_radius			L_wrist_ulna			R_HJC			L_HJC			R_HJC_reg			L_HJC_reg			
		X1	Y1	Z1	X2	Y2	Z2	X3	Y3	Z3	X4	Y4	Z4	X5	Y5	Z5	X6	Y6	Z6	X7	Y7	Z7	X8	Y8	Z8	X9	Y9	Z9	X10	Y10	Z10	X11	Y11	Z11	X12	Y12	Z12	X13	Y13	Z13	X14	Y14	Z14	X15	Y15	Z15	X16	Y16	Z16	X17	Y17	Z17	X18	Y18	Z18	X19	Y19	Z19	X20	Y20	Z20	X21	Y21	Z21	X22	Y22	Z22	X23	Y23	Z23	X24	Y24	Z24	X25	Y25	Z25	X26	Y26	Z26	X27	Y27	Z27	X28	Y28	Z28	X29	Y29	Z29	X30	Y30	Z30	X31	Y31	Z31	X32	Y32	Z32	X33	Y33	Z33	X34	Y34	Z34	X35	Y35	Z35	X36	Y36	Z36	X37	Y37	Z37	X38	Y38	Z38	X39	Y39	Z39	X40	Y40	Z40	X41	Y41	Z41	X42	Y42	Z42	X43	Y43	Z43	X44	Y44	Z44	X45	Y45	Z45	X46	Y46	Z46	X47	Y47	Z47	X48	Y48	Z48	X49	Y49	Z49	X50	Y50	Z50	X51	Y51	Z51	

219	2.18000000	-65.84461	825.21213	-414.54871	-33.88507	729.73259	-406.27769	-127.56428	419.23529	-391.75916	-177.74541	441.20860	-451.71015	-90.47471	284.79387	-358.56638	-31.53999	289.40358	-394.08912	-42.91315	827.05577	-797.59028	-8.76613	745.17664	-805.21255	-68.67518	412.73788	-830.81543	-134.76317	405.25976	-762.40674	-10.65761	300.38042	-872.70624	56.46949	308.65360	-837.17008	-44.17591	617.13087	-394.86183	-101.25338	739.12451	-373.89315	-119.13064	626.75088	-360.30594	-95.81354	761.42762	-825.96318	-101.60291	640.46959	-843.91882	-9.72348	1103.64007	-417.93444	-5.01722	992.59018	-420.08274	-60.01883	964.74490	-392.68596	-123.18845	1094.58631	-413.48752	-109.71258	979.01136	-415.22948	32.84866	1075.18103	-787.24201	44.86994	935.20395	-779.08358	-70.62166	1066.01098	-822.44232	-60.71301	933.51882	-808.46072	17.15884	1302.49479	-483.61533	-169.90116	1331.51196	-580.70526	40.92240	1305.00855	-725.30826	-158.93543	1334.32044	-674.85122	-168.29946	1776.81568	-604.25928	-131.19309	1796.75736	-476.19751	-105.18405	1789.61922	-715.90934	-22.56451	1743.59951	-562.59262	-19.73299	1746.19227	-612.58023	-69.24092	1848.56246	-418.37042	126.08417	1853.79262	-319.63381	80.30029	1893.03105	-280.36598	81.34269	1970.86738	-335.82597	130.66156	2065.95921	-466.47081	150.22418	2086.08764	-424.96793	-39.51554	1844.40153	-761.80046	151.71116	1877.28529	-834.24929	95.10440	1930.10549	-859.77632	96.75840	1983.78361	-804.53912	157.63213	2078.15441	-665.79061	158.95450	2108.55841	-711.71017	-58.30931	1213.84620	-513.81275	-36.45280	1216.92904	-702.08571	-48.30679	1225.90345	-527.71328	-29.77423	1230.65089	-686.86368	
220	2.19000000	-61.86104	822.49621	-415.49366	-29.10888	726.89601	-408.94148	-124.10377	416.76572	-392.14843	-175.83709	438.84631	-450.61583	-86.59744	282.48884	-359.40460	-28.53869	286.90464	-396.58273	-40.44306	824.66242	-797.16086	-5.81518	742.63204	-804.06178	-66.12387	410.50729	-829.94640	-132.69970	402.07569	-761.91210	-7.26249	299.23159	-872.51647	59.47441	307.51971	-836.31861	-39.78738	614.35141	-397.32335	-95.07201	736.86289	-373.70198	-113.24936	624.04143	-360.20258	-92.57822	759.01175	-825.93792	-98.47563	638.17557	-844.20793	-8.03361	1101.17178	-418.11969	-3.06972	990.01072	-420.62516	-58.10766	962.08086	-393.41392	-121.55589	1091.88048	-414.16713	-107.83051	976.24743	-415.84889	34.21054	1072.99698	-787.54222	46.45630	933.04462	-779.32636	-69.40295	1063.82377	-822.26852	-59.27459	931.23504	-808.31191	17.56525	1300.98908	-482.54258	-168.89111	1331.76520	-581.43574	41.77277	1303.97019	-724.60000	-158.07314	1334.67142	-674.96520	-168.57168	1774.64686	-604.41118	-131.05030	1794.62819	-476.85315	-105.92614	1787.03603	-715.97461	-22.30300	1740.85016	-562.55280	-19.81639	1743.26713	-613.26089	-66.16073	1845.51533	-418.77137	127.03102	1846.52777	-316.75234	81.33241	1886.31953	-277.63651	81.96327	1963.68120	-333.24366	129.13682	2057.79125	-464.83418	149.33756	2078.04821	-423.77921	-38.71015	1841.12606	-762.01623	151.71618	1871.40470	-836.79127	95.15923	1924.71851	-862.82598	96.29503	1977.81790	-807.10230	154.36309	2071.33515	-667.49957	156.53206	2101.89264	-713.37202	-58.78428	1213.07386	-513.76356	-36.08616	1216.38638	-701.93343	-48.28439	1224.96957	-526.78750	-29.84245	1229.92186	-686.21577	
221	2.20000000	-58.59463	818.15277	-416.49166	-25.23820	723.35229	-410.85890	-120.95215	413.21484	-392.55250	-173.64631	435.41536	-450.28308	-82.87083	278.97854	-360.89469	-25.44671	283.52560	-398.90842	-38.33123	821.42285	-796.73355	-2.88091	739.29860	-802.77715	-63.55506	407.32043	-829.27435	-130.87652	397.94248	-762.00249	-3.43077	297.13400	-872.10155	62.71200	305.62335	-835.12455	-36.10249	610.80129	-399.24494	-90.73505	733.40662	-374.04981	-108.12737	620.91933	-360.52879	-89.24112	755.82789	-826.13408	-95.15831	635.04403	-844.56124	-6.32484	1097.83712	-418.28868	-0.97050	986.52855	-421.24247	-55.86448	958.43578	-393.96167	-120.01998	1088.09905	-414.31730	-105.64089	972.49518	-416.39881	35.20230	1069.87149	-788.32297	47.59943	929.89077	-780.06483	-68.87318	1060.53835	-821.67070	-58.43748	927.94098	-807.82684	17.95188	1298.44176	-481.50810	-167.93615	1330.88207	-582.21301	42.54805	1302.14057	-724.75240	-157.39073	1333.91600	-674.33297	-168.95256	1771.49726	-604.56919	-131.07756	1791.47729	-477.35907	-106.63556	1783.49376	-715.99399	-23.03041	1737.21045	-563.24271	-20.55088	1739.46654	-614.39014	-62.99325	1841.45870	-419.48072	127.68010	1837.98962	-314.02779	82.16390	1878.39092	-274.90306	82.43800	1955.10912	-331.04764	127.84455	2048.35992	-463.07395	148.66769	2068.76807	-422.47081	-38.07548	1836.69875	-762.20949	151.66837	1864.24362	-839.21848	95.35128	1917.88857	-866.00132	95.88440	1970.53876	-809.87903	150.81632	2063.30201	-669.21531	153.98702	2093.96278	-714.97689	-58.98492	1211.19177	-513.90083	-35.88505	1214.95621	-702.01304	-48.27126	1222.76423	-526.06230	-29.92292	1228.04286	-686.30765	
222	2.21000000	-55.81546	813.19450	-417.35381	-22.21588	718.98682	-411.87465	-118.09323	408.67027	-393.76434	-171.21749	430.92198	-450.96681	-79.40530	274.33304	-362.85024	-22.23608	279.27931	-400.85759	-36.54748	817.39360	-796.37353	-0.12131	735.12684	-801.52999	-61.06066	403.27188	-828.78323	-129.35957	393.05868	-762.60603	0.50524	293.99632	-871.50432	65.93612	302.78751	-833.55373	-33.08776	606.44134	-400.52846	-87.77220	728.96492	-374.92711	-104.67680	617.10541	-361.26554	-86.00094	751.82569	-826.42304	-91.89441	631.05303	-844.99278	-4.56256	1093.58778	-418.64268	1.30077	982.27663	-421.82744	-53.31309	953.96127	-394.33385	-118.18127	1083.28750	-414.48092	-103.17348	967.79812	-416.90036	35.93310	1065.71955	-789.22393	48.41777	925.83054	-781.14015	-68.70181	1056.22024	-820.88844	-57.99082	923.58052	-806.82125	18.45431	1294.80512	-480.68298	-166.73432	1328.53847	-582.79544	43.35482	1299.34516	-725.38481	-156.81489	1331.95337	-673.58427	-169.26115	1767.21715	-604.76791	-131.19406	1787.36624	-478.09019	-107.38279	1779.02657	-715.84725	-23.61531	1733.06274	-563.97543	-21.14968	1735.14878	-615.66337	-60.05714	1836.28113	-420.14783	128.05645	1828.00993	-311.34222	82.85361	1869.19145	-272.25378	82.74569	1945.16919	-329.05022	126.72586	2037.67380	-461.18280	148.17512	2058.25889	-421.10031	-37.66398	1831.20467	-762.63432	151.50093	1855.70890	-841.55617	95.68543	1909.54113	-869.41042	95.37003	1961.90505	-813.12696	147.02914	2054.15177	-671.43368	151.38811	2084.80080	-717.09630	-58.77792	1208.07522	-514.22148	-35.59414	1212.45904	-702.30964	-47.64276	1219.02258	-525.47943	-30.02860	1225.09358	-686.77093	
